<?xml version="1.0" encoding="UTF-8" standalone="no"?>
<svg
   width="16"
   height="16"
   fill="currentColor"
   class="bi bi-check-circle"
   viewBox="0 0 16 16"
   version="1.1"
   id="svg2"
   sodipodi:docname="check-circle.svg"
   xmlns:inkscape="http://www.inkscape.org/namespaces/inkscape"
   xmlns:sodipodi="http://sodipodi.sourceforge.net/DTD/sodipodi-0.dtd"
   xmlns="http://www.w3.org/2000/svg"
   xmlns:svg="http://www.w3.org/2000/svg">
  <defs
     id="defs2" />
  <sodipodi:namedview
     id="namedview2"
     pagecolor="#ffffff"
     bordercolor="#000000"
     borderopacity="0.25"
     inkscape:showpageshadow="2"
     inkscape:pageopacity="0.0"
     inkscape:pagecheckerboard="0"
     inkscape:deskcolor="#d1d1d1" />
  <path
     d="M 8,15 A 7,7 0 1 1 8,1 7,7 0 0 1 8,15 m 0,1 A 8,8 0 1 0 8,0 8,8 0 0 0 8,16"
     id="path1"
     style="fill:#00a760;fill-opacity:1" />
  <path
     d="M 10.97,4.97 10.95,4.992 7.477,9.417 5.384,7.323 a 0.75,0.75 0 0 0 -1.06,1.06 L 6.97,11.03 A 0.75,0.75 0 0 0 8.049,11.01 L 12.041,6.02 A 0.75,0.75 0 0 0 10.97,4.97"
     id="path2"
     style="fill:#00a760;fill-opacity:1" />
</svg>
