<?xml version="1.0" encoding="UTF-8" standalone="no"?>
<!-- Created with Inkscape (http://www.inkscape.org/) -->

<svg
   width="300"
   height="300"
   viewBox="0 0 79.374998 79.375"
   version="1.1"
   id="svg1"
   xml:space="preserve"
   xmlns:inkscape="http://www.inkscape.org/namespaces/inkscape"
   xmlns:sodipodi="http://sodipodi.sourceforge.net/DTD/sodipodi-0.dtd"
   xmlns="http://www.w3.org/2000/svg"
   xmlns:svg="http://www.w3.org/2000/svg"><sodipodi:namedview
     id="namedview1"
     pagecolor="#ffffff"
     bordercolor="#000000"
     borderopacity="0.25"
     inkscape:showpageshadow="2"
     inkscape:pageopacity="0.0"
     inkscape:pagecheckerboard="0"
     inkscape:deskcolor="#d1d1d1"
     inkscape:document-units="mm" /><defs
     id="defs1" /><g
     inkscape:label="Warstwa 1"
     inkscape:groupmode="layer"
     id="layer1"><rect
       style="fill:#e1e1e1;fill-opacity:1;stroke:none;stroke-width:0.254865"
       id="rect1"
       width="79.375"
       height="79.375"
       x="-8.9789287e-15"
       y="0" /><g
       style="fill:#ffffff;fill-opacity:1"
       id="g1"
       transform="matrix(2.9948012,0,0,2.9948012,15.72909,15.72909)"><path
         d="m 10.5,8.5 a 2.5,2.5 0 1 1 -5,0 2.5,2.5 0 0 1 5,0"
         id="path1"
         style="fill:#ffffff;fill-opacity:1" /><path
         d="M 2,4 A 2,2 0 0 0 0,6 v 6 a 2,2 0 0 0 2,2 h 12 a 2,2 0 0 0 2,-2 V 6 A 2,2 0 0 0 14,4 H 12.828 A 2,2 0 0 1 11.414,3.414 L 10.586,2.586 A 2,2 0 0 0 9.172,2 H 6.828 A 2,2 0 0 0 5.414,2.586 L 4.586,3.414 A 2,2 0 0 1 3.172,4 Z m 0.5,2 a 0.5,0.5 0 1 1 0,-1 0.5,0.5 0 0 1 0,1 m 9,2.5 a 3.5,3.5 0 1 1 -7,0 3.5,3.5 0 0 1 7,0"
         id="path2"
         style="fill:#ffffff;fill-opacity:1" /></g></g></svg>
