<?xml version="1.0" encoding="UTF-8" standalone="no"?>
<svg
   width="200"
   height="200"
   fill="currentColor"
   class="bi bi-wifi-off"
   viewBox="0 0 200 200"
   version="1.1"
   id="svg1"
   sodipodi:docname="wifi-off.svg"
   xmlns:inkscape="http://www.inkscape.org/namespaces/inkscape"
   xmlns:sodipodi="http://sodipodi.sourceforge.net/DTD/sodipodi-0.dtd"
   xmlns="http://www.w3.org/2000/svg"
   xmlns:svg="http://www.w3.org/2000/svg">
  <defs
     id="defs1" />
  <sodipodi:namedview
     id="namedview1"
     pagecolor="#ffffff"
     bordercolor="#000000"
     borderopacity="0.25"
     inkscape:showpageshadow="2"
     inkscape:pageopacity="0.0"
     inkscape:pagecheckerboard="0"
     inkscape:deskcolor="#d1d1d1" />
  <path
     d="m 129.74446,52.393321 a 138.50015,138.50015 0 0 0 -29.744549,-3.23167 c -30.129279,0 -58.005182,9.695011 -80.648857,26.150148 a 5.3311566,5.3311566 0 0 0 -0.52762,8.090167 5.7158792,5.7158792 0 0 0 7.342706,0.549604 125.85926,125.85926 0 0 1 73.833771,-23.797843 q 10.398489,0 20.357309,1.626827 z M 99.999911,82.137877 c -20.939904,0 -40.450838,6.155563 -56.785062,16.773908 a 5.2761962,5.2761962 0 0 0 -0.6925,8.189095 5.7708396,5.7708396 0 0 0 7.166833,0.71449 92.883037,92.883037 0 0 1 38.582185,-13.95994 z m 28.535419,15.432874 8.62878,-8.628779 q 10.40949,3.979131 19.62085,9.969813 a 5.2981804,5.2981804 0 0 1 0.6925,8.189095 5.7708396,5.7708396 0 0 1 -7.16683,0.71449 93.432641,93.432641 0 0 0 -21.76431,-10.244619 z M 99.999911,126.10618 110.25551,115.85057 a 71.44849,71.44849 0 0 1 22.12704,7.00195 c 3.13275,1.59386 3.58342,5.75985 1.09921,8.24406 l -0.16488,0.16488 a 5.8258,5.8258 0 0 1 -6.71616,0.98929 60.456415,60.456415 0 0 0 -26.600809,-6.14457 m 53.916119,-53.916131 8.21108,-8.21108 q 9.73898,4.957426 18.52165,11.321838 a 5.3311566,5.3311566 0 0 1 0.51662,8.101159 5.7158792,5.7158792 0 0 1 -7.3427,0.549604 126.40887,126.40887 0 0 0 -19.90665,-11.761521 m -42.70421,73.482021 c 2.61611,1.53889 2.59413,5.10033 0.43968,7.25477 l -7.7714,7.76041 a 5.4960377,5.4960377 0 0 1 -7.771384,0 l -7.771397,-7.7714 c -2.143455,-2.14345 -2.165439,-5.69389 0.439683,-7.25477 a 21.984151,21.984151 0 0 1 11.222909,-3.06679 c 4.111029,0 7.947259,1.12119 11.222899,3.07778 z M 159.08231,36.795566 a 5.8294284,5.8294284 0 0 1 8.24405,8.244057 L 49.161562,163.20443 a 5.8294284,5.8294284 0 0 1 -8.244056,-8.24405 z"
     id="path1"
     inkscape:label="path1"
     style="fill:#f68624;fill-opacity:1;stroke:none;stroke-width:10.9921" />
</svg>
