<?xml version="1.0" encoding="UTF-8" standalone="no"?>
<!-- Created with Inkscape (http://www.inkscape.org/) -->

<svg
   width="512"
   height="512"
   viewBox="0 0 135.46667 135.46667"
   version="1.1"
   id="svg1"
   xml:space="preserve"
   inkscape:export-filename="LebaSvg.svg"
   inkscape:export-xdpi="96"
   inkscape:export-ydpi="96"
   sodipodi:docname="lebaicon.svg"
   inkscape:version="1.3 (0e150ed6c4, 2023-07-21)"
   xmlns:inkscape="http://www.inkscape.org/namespaces/inkscape"
   xmlns:sodipodi="http://sodipodi.sourceforge.net/DTD/sodipodi-0.dtd"
   xmlns="http://www.w3.org/2000/svg"
   xmlns:svg="http://www.w3.org/2000/svg"><sodipodi:namedview
     id="namedview1"
     pagecolor="#ffffff"
     bordercolor="#000000"
     borderopacity="0.25"
     inkscape:showpageshadow="2"
     inkscape:pageopacity="0.0"
     inkscape:pagecheckerboard="0"
     inkscape:deskcolor="#d1d1d1"
     inkscape:document-units="mm"
     inkscape:zoom="1.6116292"
     inkscape:cx="253.15997"
     inkscape:cy="253.47022"
     inkscape:window-width="1920"
     inkscape:window-height="1129"
     inkscape:window-x="-8"
     inkscape:window-y="-8"
     inkscape:window-maximized="1"
     inkscape:current-layer="layer1" /><defs
     id="defs1"><rect
       x="309.00408"
       y="320.7934"
       width="39.711367"
       height="112.9292"
       id="rect1" /><linearGradient
       id="swatch1"
       inkscape:swatch="solid"><stop
         style="stop-color:#000000;stop-opacity:1;"
         offset="0"
         id="stop1" /></linearGradient></defs><g
     inkscape:label="Warstwa 1"
     inkscape:groupmode="layer"
     id="layer1"
     inkscape:export-filename="layer1.svg"
     inkscape:export-xdpi="93.375237"
     inkscape:export-ydpi="93.375237"
     transform="translate(-35.169367,-55.107038)"><g
       id="g2"
       inkscape:label="Alert"
       transform="matrix(1.2108968,0,0,1.1163104,-25.041333,-12.423852)"><path
         style="fill:#fbc707;fill-opacity:1;stroke-width:0.277922;stroke-dasharray:none;paint-order:stroke fill markers"
         d="m 108.61765,151.98411 10.92381,-22.58389 10.87263,22.47769 z"
         id="path10-7"
         sodipodi:nodetypes="cccc" /><text
         xml:space="preserve"
         transform="matrix(0.26458333,0,0,0.26458333,35.111342,47.576726)"
         id="text1"
         style="font-size:74.6667px;white-space:pre;shape-inside:url(#rect1);fill:#000000;fill-opacity:1;stroke:#000000;stroke-opacity:1"><tspan
           x="309.00391"
           y="388.73035"
           id="tspan1">!</tspan></text></g><path
       style="opacity:1;fill:#2056ae;fill-opacity:1;stroke-width:0.163364;stroke-dasharray:none;paint-order:stroke fill markers"
       d="m 137.62281,144.20493 c -1.02077,-0.50527 -2.42741,-2.1343 -3.92918,-4.55035 -1.30953,-2.10679 -1.71016,-2.52825 -2.24159,-2.35815 -0.15696,0.0502 -0.6895,0.73633 -1.18342,1.52463 -1.73899,2.77543 -3.51688,4.23583 -5.15667,4.23583 -1.34872,0 -2.16269,-0.77959 -3.41478,-3.27056 -0.76957,-1.53099 -1.07396,-1.64533 -3.03716,-1.14084 -1.55122,0.39862 -3.12605,1.22002 -5.71595,2.98131 -1.3141,0.89367 -2.74999,1.80603 -3.19087,2.02747 -1.54421,0.77561 -2.87401,0.37056 -3.60275,-1.09738 -0.20479,-0.4125 -0.56807,-1.679 -0.80731,-2.81446 -0.23923,-1.13546 -0.47498,-2.12921 -0.52389,-2.20833 -0.14909,-0.24124 -0.79131,-0.15993 -1.31924,0.16703 -0.275,0.17031 -1.625,1.29505 -3,2.49944 -3.00494,2.63206 -3.9823,3.19128 -5.568287,3.186 -1.124148,-0.004 -2.061639,-0.32166 -2.782652,-0.94362 -0.193016,-0.1665 -0.929796,-0.99647 -1.637295,-1.84439 -1.045202,-1.25265 -1.371504,-1.54167 -1.740572,-1.54167 -0.517345,0 -1.193559,0.41946 -3.390087,2.1029 -0.851276,0.65242 -1.846665,1.34617 -2.211972,1.54166 -1.409182,0.75412 -3.328557,0.3769 -9.335802,-1.83477 -1.288399,-0.47435 -1.7116,-0.55196 -2.999999,-0.55017 -1.284153,0.002 -1.835767,0.10404 -3.833334,0.71061 -2.939515,0.8926 -3.96562,1.01088 -4.708334,0.54275 C 61.99375,141.38209 61.75,141.1216 61.75,140.99099 c 0,-0.1306 0.543751,-0.71851 1.208334,-1.30646 2.163916,-1.91439 2.082392,-1.87619 5.041664,-2.36219 l 2.666667,-0.43795 0.539189,-0.62208 c 0.296553,-0.34215 0.540303,-0.78424 0.541665,-0.98243 0.0028,-0.40775 -0.09271,-0.43108 -2.99752,-0.73225 -2.240261,-0.23227 -4.540842,-0.63158 -4.730292,-0.82103 -0.350031,-0.35003 3.000476,-0.88943 7.896958,-1.27133 0.779169,-0.0608 1.57807,-0.17062 1.775343,-0.24411 0.555369,-0.20687 1.079924,-0.84491 3.249986,-3.95306 2.537534,-3.63448 3.373353,-4.55701 4.698868,-5.18637 1.900676,-0.90245 4.942469,-1.63074 4.942469,-1.18337 0,0.0906 -0.848574,1.12189 -1.885722,2.29167 -4.038402,4.55482 -6.114278,7.22686 -6.114278,7.87022 0,0.23657 1.363237,0.21421 4.750001,-0.0779 3.235926,-0.27911 4.916668,-0.31415 4.916668,-0.10252 0,0.29331 -0.463511,0.50947 -2.668474,1.24442 -2.29461,0.76483 -5.131178,1.42583 -7.66486,1.78615 -1.366623,0.19434 -1.441196,0.22797 -2.111063,0.95184 -0.840393,0.90814 -1.309089,1.73802 -1.176591,2.0833 0.148039,0.38579 1.765533,0.9235 3.454418,1.14836 1.173403,0.15622 1.930665,0.15621 3.43008,-9e-5 2.783392,-0.29014 6.433007,-1.01294 6.757836,-1.33838 0.149238,-0.14952 0.437769,-0.83247 0.641176,-1.51766 0.529217,-1.78269 1.035433,-2.68493 1.985907,-3.53949 1.387501,-1.24748 4.270827,-2.45344 5.886984,-2.46225 0.76644,-0.004 2.22635,0.64252 3.012329,1.33436 0.781228,0.68768 1.488888,1.8738 1.343678,2.25221 -0.0464,0.121 -1.372248,0.90719 -2.946257,1.74709 -3.285069,1.75294 -3.899813,2.17515 -4.05244,2.78327 -0.08798,0.35054 -0.01532,0.51907 0.364791,0.84602 0.422582,0.36349 0.583462,0.39841 1.466414,0.31835 1.094224,-0.0992 3.27706,-1.12407 6.057752,-2.84413 2.63781,-1.63169 3.49087,-2.33875 3.88764,-3.22227 0.72494,-1.61433 1.36727,-3.5244 2.33928,-6.95623 1.13982,-4.02429 1.28406,-4.4278 1.58285,-4.4278 0.11973,0 0.3827,0.20625 0.58438,0.45834 0.36445,0.45554 0.36612,0.48902 0.27532,5.5 -0.0821,4.5336 -0.0647,5.04166 0.1734,5.04166 0.14562,0 1.07173,-0.375 2.05803,-0.83333 2.50425,-1.16372 3.64947,-1.12109 4.96095,0.18469 1.01663,1.01221 1.00785,1.48913 -0.0633,3.43778 -0.659,1.19891 -0.59958,1.42823 0.32854,1.26799 1.68578,-0.29104 2.7121,-0.85744 5.67452,-3.13159 0.91667,-0.7037 2.34513,-1.61232 3.17435,-2.01916 1.93943,-0.95153 3.04506,-1.00996 4.6467,-0.24557 1.83102,0.87386 2.42595,1.5486 3.74921,4.2522 0.93777,1.91599 1.38744,2.63016 2.20909,3.5085 1.49293,1.59596 1.98146,1.80417 3.95805,1.68694 0.87777,-0.0521 1.78343,-0.1165 2.0126,-0.14321 0.31988,-0.0373 0.42868,0.0358 0.46836,0.31449 0.0392,0.27535 -0.22252,0.58928 -1.08333,1.2994 -2.22864,1.8385 -3.84344,2.31244 -5.34555,1.56891 z m -25.97276,-4.54702 c 1.07278,-0.44824 2.12373,-2.43643 2.15569,-4.07816 0.0152,-0.7814 -0.0408,-0.94385 -0.44513,-1.29167 -0.25439,-0.21882 -0.65439,-0.39785 -0.88888,-0.39785 -1.49311,0 -3.23533,2.34178 -3.27168,4.3976 -0.0122,0.69101 0.0549,0.87391 0.44374,1.20833 0.52178,0.44882 1.19023,0.50271 2.00626,0.16175 z m 15.9994,-0.92371 c 0.63656,-0.39342 1.16125,-1.08354 1.69442,-2.22868 0.72122,-1.54904 0.43188,-2.61529 -0.70968,-2.61529 -1.04979,0 -2.75555,1.13203 -3.31508,2.20005 -0.12968,0.24754 -0.23578,0.79705 -0.23578,1.22116 0,1.45993 1.32095,2.19232 2.56612,1.42276 z m -32.305469,-3.10581 c 1.600232,-1.05458 1.906019,-1.427 1.906019,-2.32134 0,-0.56672 -0.08335,-0.78963 -0.370419,-0.99071 -0.758508,-0.53128 -1.786123,-0.24268 -2.734583,0.768 -0.729903,0.77778 -0.894998,1.16422 -0.894998,2.09493 0,1.44181 0.443365,1.5369 2.093981,0.44912 z"
       id="path6" /><path
       style="opacity:1;fill:#1cadeb;fill-opacity:1;stroke-width:0.163364;stroke-dasharray:none;paint-order:stroke fill markers"
       d="m 99.50924,127.51083 c -2.764956,-0.4149 -6.255694,-1.30954 -6.991979,-1.79197 -1.369809,-0.89753 -1.41981,-2.83834 -0.148635,-5.76942 0.508412,-1.17231 0.504557,-1.17139 2.798839,-0.66421 0.820356,0.18134 1.795356,0.32944 2.166667,0.3291 2.11795,-0.002 3.091778,-2.4377 3.091778,-7.73317 v -2.74786 l 0.76509,-0.71751 c 1.1021,-1.03355 3.04323,-2.46839 3.81824,-2.82236 0.76529,-0.34953 1.71343,-0.39395 2.09586,-0.0982 0.73071,0.56512 0.90501,1.13327 0.87833,2.86298 -0.0606,3.93086 -1.66901,13.53252 -2.80651,16.75435 -0.55497,1.5719 -1.78523,2.35161 -3.8263,2.42502 -0.73776,0.0265 -1.56638,0.0145 -1.84138,-0.0268 z"
       id="path7" /><path
       style="opacity:1;fill:#f68624;fill-opacity:1;stroke-width:0.163364;stroke-dasharray:none;paint-order:stroke fill markers"
       d="m 83.853551,119.01577 c -0.997518,-0.27208 -1.238226,-1.10688 -0.743212,-2.57756 1.896928,-5.63574 10.670884,-14.83087 14.571017,-15.27047 0.65436,-0.0738 0.796803,-0.0262 1.235752,0.41277 0.721048,0.72105 1.362122,3.24929 1.625962,6.4124 l 0.10706,1.28364 -1.690598,1.85704 c -1.993839,2.19012 -3.402325,4.03314 -4.760219,6.2288 l -0.987576,1.59687 h -3.529642 c -1.941307,0 -3.971899,0.0332 -4.512427,0.0737 -0.54053,0.0405 -1.132782,0.0328 -1.316117,-0.0172 z"
       id="path8" /><path
       style="opacity:1;fill:#00a760;fill-opacity:1;stroke-width:0.169381;stroke-dasharray:none;paint-order:stroke fill markers"
       d="m 94.753683,119.34332 c -0.875641,-0.19282 -1.592071,-0.40713 -1.592071,-0.47623 0,-0.0691 0.687552,-1.16978 1.527894,-2.44595 1.426097,-2.16571 4.081451,-5.46434 5.359394,-6.65774 l 0.55737,-0.52049 -0.10396,2.8627 c -0.15096,4.15701 -0.660737,6.32519 -1.693024,7.20077 -0.637285,0.54055 -1.723793,0.55044 -4.055603,0.0369 z"
       id="path9" /><path
       style="opacity:1;fill:#fbc707;fill-opacity:1;stroke-width:0.163364;stroke-dasharray:none;paint-order:stroke fill markers"
       d="m 127.08333,126.96978 c -2.8868,-0.5234 -5.62011,-0.74622 -9.15368,-0.74622 -2.79076,0 -3.03757,-0.0246 -3.34632,-0.33333 -0.96615,-0.96616 0.40684,-3.43335 3.62669,-6.51698 2.64213,-2.53035 5.48025,-4.27948 7.21418,-4.44608 1.57755,-0.15159 2.81638,1.0923 4.31203,4.32964 1.13428,2.45513 1.56378,4.02279 1.58142,5.77211 0.0152,1.50604 7.9e-4,1.56813 -0.45194,1.95833 -0.57271,0.49352 -0.9742,0.49167 -3.78238,-0.0175 z"
       id="path10" /></g></svg>
