<?xml version="1.0" encoding="UTF-8" standalone="no"?>
<!-- Created with Inkscape (http://www.inkscape.org/) -->

<svg
   width="82.30545mm"
   height="43.402092mm"
   viewBox="0 0 82.30545 43.402092"
   version="1.1"
   id="svg1"
   xml:space="preserve"
   inkscape:export-filename="LebaSvg.svg"
   inkscape:export-xdpi="96"
   inkscape:export-ydpi="96"
   xmlns:inkscape="http://www.inkscape.org/namespaces/inkscape"
   xmlns:sodipodi="http://sodipodi.sourceforge.net/DTD/sodipodi-0.dtd"
   xmlns="http://www.w3.org/2000/svg"
   xmlns:svg="http://www.w3.org/2000/svg"><sodipodi:namedview
     id="namedview1"
     pagecolor="#ffffff"
     bordercolor="#000000"
     borderopacity="0.25"
     inkscape:showpageshadow="2"
     inkscape:pageopacity="0.0"
     inkscape:pagecheckerboard="0"
     inkscape:deskcolor="#d1d1d1"
     inkscape:document-units="mm" /><defs
     id="defs1" /><g
     inkscape:label="Warstwa 1"
     inkscape:groupmode="layer"
     id="layer1"
     inkscape:export-filename="layer1.svg"
     inkscape:export-xdpi="93.375237"
     inkscape:export-ydpi="93.375237"
     transform="translate(-61.750001,-75.832433)"><path
       style="opacity:1;fill:#2056ae;fill-opacity:1;stroke-width:0.617438;stroke-dasharray:none;paint-order:stroke fill markers"
       d="m 520.14922,449.37841 c -3.85802,-1.90969 -9.17449,-8.06665 -14.85044,-17.19817 -4.94941,-7.96267 -6.4636,-9.55559 -8.47218,-8.91268 -0.59321,0.18988 -2.60596,2.78295 -4.47277,5.76238 -6.57254,10.48979 -13.29212,16.00943 -19.48977,16.00943 -5.0975,0 -8.17392,-2.94649 -12.90626,-12.36117 -2.90858,-5.78643 -4.05905,-6.21858 -11.479,-4.31184 -5.86288,1.5066 -11.81501,4.6111 -21.60361,11.26795 -4.96668,3.37764 -10.39367,6.82594 -12.05999,7.66287 -5.83637,2.93144 -10.86239,1.40055 -13.6167,-4.14757 -0.77398,-1.55906 -2.14703,-6.34586 -3.05122,-10.63735 -0.9042,-4.29148 -1.79522,-8.04739 -1.98006,-8.34645 -0.5635,-0.91176 -2.99077,-0.60444 -4.98612,0.63129 -1.03937,0.64369 -6.14173,4.8947 -11.33858,9.4467 -11.35725,9.94798 -15.05121,12.06155 -21.04549,12.04158 -4.24875,-0.0142 -7.79202,-1.2157 -10.51711,-3.56642 -0.72951,-0.62928 -3.51419,-3.7662 -6.1882,-6.97093 -3.95037,-4.73443 -5.18364,-5.82677 -6.57854,-5.82677 -1.95532,0 -4.51109,1.58535 -12.81293,7.94794 -3.21742,2.46585 -6.97952,5.0879 -8.36021,5.82677 -5.32604,2.8502 -12.58037,1.4245 -35.28492,-6.93458 -4.86954,-1.7928 -6.46904,-2.08614 -11.33858,-2.07938 -4.85349,0.007 -6.93833,0.39322 -14.48819,2.68578 -11.10998,3.3736 -14.98817,3.82066 -17.79528,2.05134 -1.12598,-0.70971 -2.04724,-1.69425 -2.04724,-2.18789 0,-0.49363 2.05512,-2.71564 4.56693,-4.93781 8.17858,-7.23547 7.87046,-7.09111 19.05511,-8.92797 l 10.07874,-1.65524 2.03788,-2.35117 c 1.12083,-1.29315 2.04209,-2.96406 2.04724,-3.71313 0.0106,-1.5411 -0.3504,-1.62928 -11.32921,-2.76756 -8.46713,-0.87787 -17.16224,-2.38705 -17.87827,-3.10309 -1.32295,-1.32294 11.34038,-3.36161 29.84677,-4.80503 2.94489,-0.22969 5.96436,-0.64486 6.70996,-0.9226 2.09903,-0.7819 4.0816,-3.19337 12.28341,-14.94073 9.59068,-13.73661 12.74968,-17.22335 17.7595,-19.60203 7.18366,-3.41083 18.6802,-6.16342 18.6802,-4.47256 0,0.34258 -3.20721,4.24022 -7.12714,8.66142 -15.26325,17.21506 -23.10908,27.31412 -23.10908,29.74573 0,0.89412 5.15239,0.8096 17.95276,-0.29446 12.23027,-1.0549 18.58268,-1.18736 18.58268,-0.38749 0,1.10859 -1.75185,1.92555 -10.08557,4.70331 -8.67254,2.89069 -19.39343,5.38899 -28.96955,6.7508 -5.16519,0.73454 -5.44704,0.86163 -7.97882,3.5975 -3.17629,3.43234 -4.94774,6.56892 -4.44696,7.87391 0.55952,1.45811 6.67288,3.49038 13.05607,4.34024 4.43491,0.59047 7.297,0.5904 12.96408,-3.3e-4 10.51991,-1.09657 24.31373,-3.82842 25.54143,-5.05844 0.56405,-0.56513 1.65456,-3.14634 2.42334,-5.73602 2.00019,-6.73775 3.91345,-10.14778 7.50579,-13.3776 5.2441,-4.7149 16.14171,-9.27286 22.25002,-9.30615 2.89678,-0.0158 8.41455,2.42841 11.38518,5.04326 2.95269,2.59907 5.62728,7.08207 5.07846,8.51227 -0.17549,0.45732 -5.18644,3.42875 -11.13545,6.60318 -12.41601,6.62527 -14.73945,8.22104 -15.31631,10.51945 -0.33252,1.32486 -0.0579,1.96182 1.37874,3.19754 1.59716,1.37382 2.20521,1.50582 5.54235,1.20322 4.13565,-0.375 12.38574,-4.24845 22.89543,-10.74948 9.96968,-6.16699 13.19386,-8.83935 14.69344,-12.17865 2.73995,-6.1014 5.16766,-13.32056 8.84138,-26.29124 4.30797,-15.20994 4.85315,-16.735 5.98245,-16.735 0.45251,0 1.4464,0.77953 2.20865,1.73228 1.37746,1.72174 1.38379,1.84829 1.04061,20.78741 -0.31049,17.13486 -0.24444,19.05511 0.65537,19.05511 0.55036,0 4.05063,-1.41732 7.77838,-3.1496 9.46486,-4.39832 13.79326,-4.23718 18.75004,0.69805 3.84237,3.82567 3.8092,5.62819 -0.23911,12.99318 -2.49071,4.53129 -2.26613,5.39803 1.24175,4.7924 6.37143,-1.10001 10.25046,-3.24073 21.447,-11.83595 3.46456,-2.65964 8.86346,-6.0938 11.99755,-7.63146 7.33011,-3.59634 11.50888,-3.81718 17.5623,-0.92815 6.92042,3.30281 9.16895,5.853 14.17026,16.07133 3.54432,7.24152 5.24388,9.94077 8.3493,13.26048 5.64259,6.03195 7.48901,6.8189 14.95958,6.37583 3.31754,-0.19676 6.74053,-0.44034 7.60668,-0.54129 1.209,-0.14092 1.62018,0.13518 1.77018,1.18865 0.14818,1.0407 -0.84103,2.22718 -4.09449,4.91111 -8.4232,6.94867 -14.52637,8.73993 -20.20364,5.92974 z m -98.16478,-17.18558 c 4.0546,-1.69413 8.02669,-9.20857 8.1475,-15.41354 0.0575,-2.95333 -0.15408,-3.56729 -1.68238,-4.88189 -0.96149,-0.82703 -2.47328,-1.5037 -3.35955,-1.5037 -5.64325,0 -12.22801,8.85085 -12.36539,16.62085 -0.0462,2.61169 0.20768,3.30298 1.67711,4.56692 1.97209,1.69633 4.49849,1.90002 7.58271,0.61136 z m 60.47018,-3.4912 c 2.40591,-1.48693 4.38898,-4.09528 6.40409,-8.42334 2.72588,-5.85464 1.63233,-9.88459 -2.68222,-9.88459 -3.96771,0 -10.4147,4.27855 -12.52945,8.31518 -0.49012,0.93555 -0.89113,3.01247 -0.89113,4.61538 0,5.51784 4.99256,8.28593 9.69871,5.37737 z M 360.35521,416.96314 c 6.04812,-3.98582 7.20385,-5.39338 7.20385,-8.77357 0,-2.14194 -0.31501,-2.98444 -1.40001,-3.7444 -2.8668,-2.00799 -6.7507,-0.91722 -10.33543,2.90266 -2.75869,2.93965 -3.38267,4.4002 -3.38267,7.91785 0,5.44936 1.67571,5.80877 7.91426,1.69746 z"
       id="path6"
       transform="scale(0.26458333)" /><path
       style="opacity:1;fill:#1cadeb;fill-opacity:1;stroke-width:0.163364;stroke-dasharray:none;paint-order:stroke fill markers"
       d="m 99.50924,102.20394 c -2.764956,-0.4149 -6.255694,-1.30954 -6.991979,-1.79197 -1.369809,-0.897534 -1.41981,-2.838345 -0.148635,-5.769426 0.508412,-1.172305 0.504557,-1.171392 2.798839,-0.664212 0.820356,0.181348 1.795356,0.329446 2.166667,0.329102 2.11795,-0.0019 3.091778,-2.437697 3.091778,-7.733173 V 83.82641 l 0.76509,-0.717511 c 1.1021,-1.033552 3.04323,-2.468396 3.81824,-2.822368 0.76529,-0.349528 1.71343,-0.393941 2.09586,-0.09817 0.73071,0.565126 0.90501,1.133277 0.87833,2.862987 -0.0606,3.930859 -1.66901,13.532514 -2.80651,16.754351 -0.55497,1.571901 -1.78523,2.351611 -3.8263,2.425021 -0.73776,0.0265 -1.56638,0.0145 -1.84138,-0.0268 z"
       id="path7" /><path
       style="opacity:1;fill:#f68624;fill-opacity:1;stroke-width:0.163364;stroke-dasharray:none;paint-order:stroke fill markers"
       d="m 83.853551,93.708873 c -0.997518,-0.272077 -1.238226,-1.10688 -0.743212,-2.577558 1.896928,-5.635739 10.670884,-14.830872 14.571017,-15.270472 0.65436,-0.07376 0.796803,-0.02617 1.235752,0.412774 0.721048,0.721045 1.362122,3.24929 1.625962,6.412394 l 0.10706,1.283644 -1.690598,1.857037 c -1.993839,2.19012 -3.402325,4.033139 -4.760219,6.228807 l -0.987576,1.596869 h -3.529642 c -1.941307,0 -3.971899,0.03317 -4.512427,0.07371 -0.54053,0.04054 -1.132782,0.0328 -1.316117,-0.0172 z"
       id="path8" /><path
       style="opacity:1;fill:#00a760;fill-opacity:1;stroke-width:0.169381;stroke-dasharray:none;paint-order:stroke fill markers"
       d="m 94.753683,94.03643 c -0.875641,-0.192829 -1.592071,-0.407133 -1.592071,-0.476232 0,-0.0691 0.687552,-1.169778 1.527894,-2.445949 1.426097,-2.165714 4.081451,-5.464342 5.359394,-6.65774 l 0.55737,-0.52049 -0.10396,2.8627 c -0.15096,4.157009 -0.660737,6.325185 -1.693024,7.200771 -0.637285,0.540543 -1.723793,0.55044 -4.055603,0.03695 z"
       id="path9" /><path
       style="opacity:1;fill:#fbc707;fill-opacity:1;stroke-width:0.617438;stroke-dasharray:none;paint-order:stroke fill markers"
       d="m 480.31496,384.23768 c -10.91076,-1.97819 -21.24136,-2.82036 -34.59659,-2.82036 -10.54777,0 -11.48058,-0.0929 -12.6475,-1.25984 -3.65161,-3.6516 1.53765,-12.97644 13.70716,-24.63109 9.986,-9.56352 20.71275,-16.1744 27.26618,-16.8041 5.9624,-0.57291 10.64459,4.12839 16.29745,16.364 4.28703,9.27925 5.91034,15.20425 5.97701,21.81585 0.0574,5.69214 0.003,5.9268 -1.70812,7.40157 -2.16456,1.86529 -3.68202,1.85829 -14.29559,-0.066 z"
       id="path10"
       transform="scale(0.26458333)" /></g></svg>
